<?xml version="1.0" encoding="utf-8"?>
<?xml-stylesheet type="text/css" href="default.css"?>
<!-- Generator: Adobe Illustrator 16.0.0, SVG Export Plug-In . SVG Version: 6.00 Build 0)  -->
<!DOCTYPE svg PUBLIC "-//W3C//DTD SVG 1.1//EN" "http://www.w3.org/Graphics/SVG/1.1/DTD/svg11.dtd">
<svg version="1.1" xmlns="http://www.w3.org/2000/svg" xmlns:xlink="http://www.w3.org/1999/xlink" x="0px" y="0px" width="1434px"
	 height="1617.299px" viewBox="0 0 1434 1617.299" enable-background="new 0 0 1434 1617.299" xml:space="preserve">
<g id="Layer_3" display="none">
	<path display="inline" fill="#DD4147" d="M1200.811,913.379c-20.253,0.409-11.415-25.907-45.943-22.645
		s-34.245,28.236-68.775,27.41s-49.52-14.703-68.773-13.761s-11.414-1.054-45.658,8.997s-23.583,13.091-45.947,13.5
		s-18.134-9.408-45.943-13.5s-11.414-19.908-45.658-18.428s-28.527,28.519-45.945,31.928s-65.077-10.908-91.603-13.5
		s-57.36-8.997-114.719-8.997s-22.248-52.909-68.773-53.979s-49.47,0-80.189,22.488s-59.276,10.081-80.189,13.498
		s-11.415,26.581-37.244,26.99s-19.83-81.911-42.945-80.969s-160.377,26.999-160.377,26.999v128.113v16.945v128.113
		c0,0,137.261,26.057,160.377,26.999c23.116,0.941,17.116-81.378,42.945-80.969s16.332,23.572,37.244,26.99
		s49.47-8.99,80.189,13.498s33.664,23.559,80.189,22.488s11.415-53.979,68.773-53.979s88.193-6.405,114.719-8.997
		s74.185-16.908,91.603-13.5s11.701,30.448,45.945,31.928s17.849-14.337,45.658-18.428s23.579-13.908,45.943-13.5
		s11.703,3.449,45.947,13.5s26.404,8.055,45.658,8.997s34.243-12.935,68.773-13.761s34.247,24.147,68.775,27.41
		s25.69-23.054,45.943-22.645s39.896,10.164,57.073,10.051v-84.193v-16.945v-84.193
		C1240.707,903.215,1221.063,912.97,1200.811,913.379z"/>
	
		<text transform="matrix(1 0 0 1 141.4971 1004.8398)" display="inline" fill="#FFFFFF" font-family="'MyriadPro-Semibold'" font-size="14">SDP</text>
	<linearGradient id="SVGID_1_" gradientUnits="userSpaceOnUse" x1="987" y1="863.0864" x2="1006.3619" y2="863.0864">
		<stop  offset="0" style="stop-color:#FFFFFF"/>
		<stop  offset="1" style="stop-color:#8DC63F"/>
	</linearGradient>
	<path display="inline" fill="url(#SVGID_1_)" d="M1200.952,834.651c-11.557,0-42.943,6.75-54.5,6.75s-48.945,0-48.945,0
		s-22.83,0.565-45.659,3.259S987,849.651,987,849.651v7.89v11.092v7.89c0,0,42.019,2.297,64.848,4.991s45.659,3.259,45.659,3.259
		s37.389,0,48.945,0s42.943,6.75,54.5,6.75s57.216,2.25,57.216,2.25v-25.139v-11.092v-25.139
		C1258.168,832.402,1212.509,834.651,1200.952,834.651z"/>
	
		<text transform="matrix(1 0 0 1 1015.0176 867.3882)" display="inline" fill="#FFFFFF" font-family="'MyriadPro-Semibold'" font-size="14">VIHR</text>
</g>
<g id="SDP" display="none">
	<g display="inline">
		<rect x="112.271" y="1316.052" fill="#DA1C5C" width="22.83" height="269.88"/>
		<rect x="265.398" y="1262.055" fill="#DA1C5C" width="22.83" height="323.878"/>
		<rect x="163.313" y="1298.042" fill="#DA1C5C" width="22.83" height="287.891"/>
		<rect x="214.356" y="1281.114" fill="#DA1C5C" width="22.83" height="304.818"/>
		<rect x="367.482" y="1370.015" fill="#DA1C5C" width="22.83" height="215.918"/>
		<rect x="316.44" y="1423.994" fill="#DA1C5C" width="22.83" height="161.938"/>
		<rect x="418.524" y="1370.015" fill="#DA1C5C" width="22.83" height="215.918"/>
		<rect x="469.566" y="1298.042" fill="#DA1C5C" width="22.83" height="287.891"/>
		<rect x="571.651" y="1406.001" fill="#DA1C5C" width="22.83" height="179.932"/>
		<rect x="622.693" y="1406.001" fill="#DA1C5C" width="22.829" height="179.932"/>
		<rect x="673.735" y="1417.257" fill="#DA1C5C" width="22.829" height="168.675"/>
		<rect x="724.777" y="1433.523" fill="#DA1C5C" width="22.829" height="152.41"/>
		<rect x="775.82" y="1450.993" fill="#DA1C5C" width="22.828" height="134.94"/>
		<rect x="877.904" y="1423.994" fill="#DA1C5C" width="22.829" height="161.938"/>
		<rect x="928.946" y="1441.988" fill="#DA1C5C" width="22.829" height="143.945"/>
		<rect x="1133.115" y="1378.704" fill="#DA1C5C" width="22.829" height="207.229"/>
		<rect x="1184.157" y="1419.777" fill="#DA1C5C" width="22.829" height="166.155"/>
		<rect x="1235.199" y="1403.892" fill="#DA1C5C" width="22.829" height="182.04"/>
		<rect x="1031.03" y="1403.892" fill="#DA1C5C" width="22.829" height="182.04"/>
		<rect x="1082.072" y="1439.878" fill="#DA1C5C" width="22.83" height="146.054"/>
		<rect x="979.988" y="1417.886" fill="#DA1C5C" width="22.829" height="168.047"/>
		<rect x="826.862" y="1387.137" fill="#DA1C5C" width="22.829" height="198.796"/>
		<rect x="520.609" y="1298.042" fill="#DA1C5C" width="22.83" height="287.891"/>
	</g>
	<text transform="matrix(1 0 0 1 37.0747 1585.9321)" display="inline" font-family="'MyriadPro-Semibold'" font-size="14">SDP</text>
	<text transform="matrix(1 0 0 1 1295.5117 1331.895)" display="inline" font-family="'MyriadPro-Semibold'" font-size="14">VIHR</text>
</g>
<g id="VIHR" display="none">
	<g display="inline">
		<rect x="1006.983" y="1301.644" fill="#8DC63F" width="23.113" height="26.006"/>
		<rect x="1052.813" y="1301.644" fill="#8DC63F" width="23.113" height="35.986"/>
		<rect x="1098.644" y="1301.644" fill="#8DC63F" width="23.113" height="42.504"/>
		<rect x="1144.474" y="1301.644" fill="#8DC63F" width="23.113" height="42.504"/>
		<rect x="1190.304" y="1301.644" fill="#8DC63F" width="23.113" height="56.004"/>
		<rect x="1236.134" y="1301.644" fill="#8DC63F" width="23.113" height="60.504"/>
	</g>
	<linearGradient id="SVGID_2_" gradientUnits="userSpaceOnUse" x1="112.127" y1="988.7524" x2="283.6421" y2="988.7524">
		<stop  offset="0.4616" style="stop-color:#3D5BA9"/>
		<stop  offset="0.5513" style="stop-color:#3951A3"/>
		<stop  offset="0.7347" style="stop-color:#33409A"/>
		<stop  offset="0.8908" style="stop-color:#2F3494"/>
		<stop  offset="1" style="stop-color:#2E3192"/>
	</linearGradient>
	<path display="inline" fill="url(#SVGID_2_)" d="M260.812,919.473c-39.839-8.212-148.686-78.359-148.686-78.359v198.494h144.686
		c0,0,11-1.643,11,3.691s-11,4.021-11,4.021H112.921v89.071h147.891h22.83V920.473C283.642,920.473,266.398,920.624,260.812,919.473
		z"/>
	
		<text transform="matrix(1 0 0 1 134.9565 1097.7983)" display="inline" fill="#FFFFFF" font-family="'MyriadPro-Semibold'" font-size="14">NSP</text>
	
		<text transform="matrix(1 0 0 1 134.9565 967.7979)" display="inline" fill="#FFFFFF" font-family="'MyriadPro-Semibold'" font-size="14">SP</text>
	
		<text transform="matrix(0 1 -1 0 266.3984 1011.7817)" display="inline" fill="#FFFFFF" font-family="'MyriadPro-Semibold'" font-size="14">KP</text>
</g>
<g id="guide" display="none">
	<g display="inline">
		<rect x="81" y="816.816" fill="none" stroke="#A7A9AC" stroke-miterlimit="10" width="1264.846" height="771.483"/>
		<line fill="none" stroke="#A7A9AC" stroke-miterlimit="10" x1="81" y1="1551.571" x2="1345.846" y2="1551.571"/>
		<line fill="none" stroke="#A7A9AC" stroke-miterlimit="10" x1="81" y1="1514.842" x2="1345.846" y2="1514.842"/>
		<line fill="none" stroke="#A7A9AC" stroke-miterlimit="10" x1="81" y1="1478.115" x2="1345.846" y2="1478.115"/>
		<line fill="none" stroke="#A7A9AC" stroke-miterlimit="10" x1="81" y1="1441.386" x2="1345.846" y2="1441.386"/>
		<line fill="none" stroke="#A7A9AC" stroke-miterlimit="10" x1="81" y1="1404.658" x2="1345.846" y2="1404.658"/>
		<line fill="none" stroke="#A7A9AC" stroke-miterlimit="10" x1="81" y1="1367.929" x2="1345.846" y2="1367.929"/>
		<line fill="none" stroke="#A7A9AC" stroke-miterlimit="10" x1="81" y1="1331.201" x2="1345.846" y2="1331.201"/>
		<line fill="none" stroke="#A7A9AC" stroke-miterlimit="10" x1="81" y1="1294.473" x2="1345.846" y2="1294.473"/>
		<line fill="none" stroke="#A7A9AC" stroke-miterlimit="10" x1="81" y1="1257.745" x2="1345.846" y2="1257.745"/>
		<line fill="none" stroke="#A7A9AC" stroke-miterlimit="10" x1="81" y1="1221.016" x2="1345.846" y2="1221.016"/>
		<line fill="none" stroke="#A7A9AC" stroke-miterlimit="10" x1="81" y1="1184.099" x2="1345.846" y2="1184.099"/>
		<line fill="none" stroke="#A7A9AC" stroke-miterlimit="10" x1="81" y1="1147.371" x2="1345.846" y2="1147.371"/>
		<line fill="none" stroke="#A7A9AC" stroke-miterlimit="10" x1="81" y1="1110.643" x2="1345.846" y2="1110.643"/>
		<line fill="none" stroke="#A7A9AC" stroke-miterlimit="10" x1="81" y1="1073.915" x2="1345.846" y2="1073.915"/>
		<line fill="none" stroke="#A7A9AC" stroke-miterlimit="10" x1="81" y1="1037.186" x2="1345.846" y2="1037.186"/>
		<line fill="none" stroke="#A7A9AC" stroke-miterlimit="10" x1="81" y1="1000.458" x2="1345.846" y2="1000.458"/>
		<line fill="none" stroke="#A7A9AC" stroke-miterlimit="10" x1="81" y1="963.729" x2="1345.846" y2="963.729"/>
		<line fill="none" stroke="#A7A9AC" stroke-miterlimit="10" x1="81" y1="927.001" x2="1345.846" y2="927.001"/>
		<line fill="none" stroke="#A7A9AC" stroke-miterlimit="10" x1="81" y1="890.273" x2="1345.846" y2="890.273"/>
		<line fill="none" stroke="#A7A9AC" stroke-miterlimit="10" x1="81" y1="853.544" x2="1345.846" y2="853.544"/>
		<line fill="none" stroke="#A7A9AC" stroke-miterlimit="10" x1="1321.142" y1="816.816" x2="1321.142" y2="1588.299"/>
		<line fill="none" stroke="#A7A9AC" stroke-miterlimit="10" x1="1296.128" y1="816.816" x2="1296.128" y2="1588.299"/>
		<line fill="none" stroke="#A7A9AC" stroke-miterlimit="10" x1="1271.424" y1="816.816" x2="1271.424" y2="1588.299"/>
		<line fill="none" stroke="#A7A9AC" stroke-miterlimit="10" x1="1246.72" y1="816.816" x2="1246.72" y2="1588.299"/>
		<line fill="none" stroke="#A7A9AC" stroke-miterlimit="10" x1="1221.708" y1="816.816" x2="1221.708" y2="1588.299"/>
		<line fill="none" stroke="#A7A9AC" stroke-miterlimit="10" x1="1197.004" y1="816.816" x2="1197.004" y2="1588.299"/>
		<line fill="none" stroke="#A7A9AC" stroke-miterlimit="10" x1="1172.3" y1="816.816" x2="1172.3" y2="1588.299"/>
		<line fill="none" stroke="#A7A9AC" stroke-miterlimit="10" x1="1147.287" y1="816.816" x2="1147.287" y2="1588.299"/>
		<line fill="none" stroke="#A7A9AC" stroke-miterlimit="10" x1="1122.582" y1="816.816" x2="1122.582" y2="1588.299"/>
		<line fill="none" stroke="#A7A9AC" stroke-miterlimit="10" x1="1097.879" y1="816.816" x2="1097.879" y2="1588.299"/>
		<line fill="none" stroke="#A7A9AC" stroke-miterlimit="10" x1="1073.174" y1="816.816" x2="1073.174" y2="1588.299"/>
		<line fill="none" stroke="#A7A9AC" stroke-miterlimit="10" x1="1048.163" y1="816.816" x2="1048.163" y2="1588.299"/>
		<line fill="none" stroke="#A7A9AC" stroke-miterlimit="10" x1="1023.458" y1="816.816" x2="1023.458" y2="1588.299"/>
		<line fill="none" stroke="#A7A9AC" stroke-miterlimit="10" x1="998.755" y1="816.816" x2="998.755" y2="1588.299"/>
		<line fill="none" stroke="#A7A9AC" stroke-miterlimit="10" x1="973.741" y1="816.816" x2="973.741" y2="1588.299"/>
		<line fill="none" stroke="#A7A9AC" stroke-miterlimit="10" x1="949.036" y1="816.816" x2="949.036" y2="1588.299"/>
		<line fill="none" stroke="#A7A9AC" stroke-miterlimit="10" x1="924.332" y1="816.816" x2="924.332" y2="1588.299"/>
		<line fill="none" stroke="#A7A9AC" stroke-miterlimit="10" x1="899.32" y1="816.816" x2="899.32" y2="1588.299"/>
		<line fill="none" stroke="#A7A9AC" stroke-miterlimit="10" x1="874.617" y1="816.816" x2="874.617" y2="1588.299"/>
		<line fill="none" stroke="#A7A9AC" stroke-miterlimit="10" x1="849.911" y1="816.816" x2="849.911" y2="1588.299"/>
		<line fill="none" stroke="#A7A9AC" stroke-miterlimit="10" x1="824.898" y1="816.816" x2="824.898" y2="1588.299"/>
		<line fill="none" stroke="#A7A9AC" stroke-miterlimit="10" x1="800.193" y1="816.816" x2="800.193" y2="1588.299"/>
		<line fill="none" stroke="#A7A9AC" stroke-miterlimit="10" x1="775.49" y1="816.816" x2="775.49" y2="1588.299"/>
		<line fill="none" stroke="#A7A9AC" stroke-miterlimit="10" x1="750.479" y1="816.816" x2="750.479" y2="1588.299"/>
		<line fill="none" stroke="#A7A9AC" stroke-miterlimit="10" x1="725.774" y1="816.816" x2="725.774" y2="1588.299"/>
		<line fill="none" stroke="#A7A9AC" stroke-miterlimit="10" x1="701.072" y1="816.816" x2="701.072" y2="1588.299"/>
		<line fill="none" stroke="#A7A9AC" stroke-miterlimit="10" x1="676.368" y1="816.816" x2="676.368" y2="1588.299"/>
		<line fill="none" stroke="#A7A9AC" stroke-miterlimit="10" x1="651.354" y1="816.816" x2="651.354" y2="1588.299"/>
		<line fill="none" stroke="#A7A9AC" stroke-miterlimit="10" x1="626.65" y1="816.816" x2="626.65" y2="1588.299"/>
		<line fill="none" stroke="#A7A9AC" stroke-miterlimit="10" x1="601.945" y1="816.816" x2="601.945" y2="1588.299"/>
		<line fill="none" stroke="#A7A9AC" stroke-miterlimit="10" x1="576.933" y1="816.816" x2="576.933" y2="1588.299"/>
		<line fill="none" stroke="#A7A9AC" stroke-miterlimit="10" x1="552.229" y1="816.816" x2="552.229" y2="1588.299"/>
		<line fill="none" stroke="#A7A9AC" stroke-miterlimit="10" x1="527.525" y1="816.816" x2="527.525" y2="1588.299"/>
		<line fill="none" stroke="#A7A9AC" stroke-miterlimit="10" x1="502.512" y1="816.816" x2="502.512" y2="1588.299"/>
		<line fill="none" stroke="#A7A9AC" stroke-miterlimit="10" x1="477.808" y1="816.816" x2="477.808" y2="1588.299"/>
		<line fill="none" stroke="#A7A9AC" stroke-miterlimit="10" x1="453.104" y1="816.816" x2="453.104" y2="1588.299"/>
		<line fill="none" stroke="#A7A9AC" stroke-miterlimit="10" x1="428.092" y1="816.816" x2="428.092" y2="1588.299"/>
		<line fill="none" stroke="#A7A9AC" stroke-miterlimit="10" x1="403.387" y1="816.816" x2="403.387" y2="1588.299"/>
		<line fill="none" stroke="#A7A9AC" stroke-miterlimit="10" x1="378.684" y1="816.816" x2="378.684" y2="1588.299"/>
		<line fill="none" stroke="#A7A9AC" stroke-miterlimit="10" x1="353.67" y1="816.816" x2="353.67" y2="1588.299"/>
		<line fill="none" stroke="#A7A9AC" stroke-miterlimit="10" x1="328.967" y1="816.816" x2="328.967" y2="1588.299"/>
		<line fill="none" stroke="#A7A9AC" stroke-miterlimit="10" x1="304.263" y1="816.816" x2="304.263" y2="1588.299"/>
		<line fill="none" stroke="#A7A9AC" stroke-miterlimit="10" x1="279.559" y1="816.816" x2="279.559" y2="1588.299"/>
		<line fill="none" stroke="#A7A9AC" stroke-miterlimit="10" x1="254.546" y1="816.816" x2="254.546" y2="1588.299"/>
		<line fill="none" stroke="#A7A9AC" stroke-miterlimit="10" x1="229.842" y1="816.816" x2="229.842" y2="1588.299"/>
		<line fill="none" stroke="#A7A9AC" stroke-miterlimit="10" x1="205.138" y1="816.816" x2="205.138" y2="1588.299"/>
		<line fill="none" stroke="#A7A9AC" stroke-miterlimit="10" x1="180.125" y1="816.816" x2="180.125" y2="1588.299"/>
		<line fill="none" stroke="#A7A9AC" stroke-miterlimit="10" x1="155.421" y1="816.816" x2="155.421" y2="1588.299"/>
		<line fill="none" stroke="#A7A9AC" stroke-miterlimit="10" x1="130.717" y1="816.816" x2="130.717" y2="1588.299"/>
		<line fill="none" stroke="#A7A9AC" stroke-miterlimit="10" x1="105.704" y1="816.816" x2="105.704" y2="1588.299"/>
	</g>
	<text transform="matrix(1 0 0 1 84.5635 804.9292)" display="inline"><tspan x="0" y="0" font-family="'MyriadPro-Regular'" font-size="13.2681">1905</tspan><tspan x="24.571" y="0" font-family="'MyriadPro-Regular'" font-size="13.2681" letter-spacing="1">	</tspan><tspan x="28.626" y="0" font-family="'MyriadPro-Regular'" font-size="13.2681" letter-spacing="-2">	</tspan><tspan x="29.29" y="0" font-family="'MyriadPro-Regular'" font-size="13.2681" letter-spacing="26">	</tspan><tspan x="58.58" y="0" font-family="'MyriadPro-Regular'" font-size="13.2681">1910</tspan><tspan x="83.15" y="0" font-family="'MyriadPro-Regular'" font-size="13.2681" letter-spacing="1">	</tspan><tspan x="87.869" y="0" font-family="'MyriadPro-Regular'" font-size="13.2681" letter-spacing="26">	</tspan><tspan x="117.159" y="0" font-family="'MyriadPro-Regular'" font-size="13.2681">1915</tspan><tspan x="141.73" y="0" font-family="'MyriadPro-Regular'" font-size="13.2681" letter-spacing="1">	</tspan><tspan x="146.448" y="0" font-family="'MyriadPro-Regular'" font-size="13.2681" letter-spacing="26">	</tspan><tspan x="175.738" y="0" font-family="'MyriadPro-Regular'" font-size="13.2681">1920</tspan><tspan x="200.31" y="0" font-family="'MyriadPro-Regular'" font-size="13.2681" letter-spacing="1">	</tspan><tspan x="205.028" y="0" font-family="'MyriadPro-Regular'" font-size="13.2681" letter-spacing="26">	</tspan><tspan x="234.318" y="0" font-family="'MyriadPro-Regular'" font-size="13.2681">1925</tspan><tspan x="258.889" y="0" font-family="'MyriadPro-Regular'" font-size="13.2681" letter-spacing="1">	</tspan><tspan x="263.607" y="0" font-family="'MyriadPro-Regular'" font-size="13.2681" letter-spacing="26">	</tspan><tspan x="292.897" y="0" font-family="'MyriadPro-Regular'" font-size="13.2681">1930</tspan><tspan x="317.469" y="0" font-family="'MyriadPro-Regular'" font-size="13.2681" letter-spacing="1">	</tspan><tspan x="322.187" y="0" font-family="'MyriadPro-Regular'" font-size="13.2681" letter-spacing="26">	</tspan><tspan x="351.477" y="0" font-family="'MyriadPro-Regular'" font-size="13.2681">1935</tspan><tspan x="376.048" y="0" font-family="'MyriadPro-Regular'" font-size="13.2681" letter-spacing="1">	</tspan><tspan x="380.767" y="0" font-family="'MyriadPro-Regular'" font-size="13.2681" letter-spacing="26">	</tspan><tspan x="410.057" y="0" font-family="'MyriadPro-Regular'" font-size="13.2681">1940</tspan><tspan x="434.627" y="0" font-family="'MyriadPro-Regular'" font-size="13.2681" letter-spacing="1">	</tspan><tspan x="439.346" y="0" font-family="'MyriadPro-Regular'" font-size="13.2681" letter-spacing="26">	</tspan><tspan x="468.636" y="0" font-family="'MyriadPro-Regular'" font-size="13.2681">1945</tspan><tspan x="493.207" y="0" font-family="'MyriadPro-Regular'" font-size="13.2681" letter-spacing="1">	</tspan><tspan x="497.925" y="0" font-family="'MyriadPro-Regular'" font-size="13.2681" letter-spacing="26">	</tspan><tspan x="527.215" y="0" font-family="'MyriadPro-Regular'" font-size="13.2681">1950</tspan><tspan x="551.787" y="0" font-family="'MyriadPro-Regular'" font-size="13.2681" letter-spacing="1">	</tspan><tspan x="556.505" y="0" font-family="'MyriadPro-Regular'" font-size="13.2681" letter-spacing="26">	</tspan><tspan x="585.795" y="0" font-family="'MyriadPro-Regular'" font-size="13.2681">1955</tspan><tspan x="610.366" y="0" font-family="'MyriadPro-Regular'" font-size="13.2681" letter-spacing="1">	</tspan><tspan x="615.084" y="0" font-family="'MyriadPro-Regular'" font-size="13.2681" letter-spacing="26">	</tspan><tspan x="644.374" y="0" font-family="'MyriadPro-Regular'" font-size="13.2681">1960</tspan><tspan x="668.945" y="0" font-family="'MyriadPro-Regular'" font-size="13.2681" letter-spacing="1">	</tspan><tspan x="673.664" y="0" font-family="'MyriadPro-Regular'" font-size="13.2681" letter-spacing="26">	</tspan><tspan x="702.954" y="0" font-family="'MyriadPro-Regular'" font-size="13.2681">1965</tspan><tspan x="727.525" y="0" font-family="'MyriadPro-Regular'" font-size="13.2681" letter-spacing="1">	</tspan><tspan x="732.243" y="0" font-family="'MyriadPro-Regular'" font-size="13.2681" letter-spacing="26">	</tspan><tspan x="761.533" y="0" font-family="'MyriadPro-Regular'" font-size="13.2681">1970</tspan><tspan x="786.104" y="0" font-family="'MyriadPro-Regular'" font-size="13.2681" letter-spacing="1">	</tspan><tspan x="790.823" y="0" font-family="'MyriadPro-Regular'" font-size="13.2681" letter-spacing="26">	</tspan><tspan x="820.113" y="0" font-family="'MyriadPro-Regular'" font-size="13.2681">1975</tspan><tspan x="844.684" y="0" font-family="'MyriadPro-Regular'" font-size="13.2681" letter-spacing="1">	</tspan><tspan x="849.402" y="0" font-family="'MyriadPro-Regular'" font-size="13.2681" letter-spacing="26">	</tspan><tspan x="878.692" y="0" font-family="'MyriadPro-Regular'" font-size="13.2681">1980</tspan><tspan x="903.264" y="0" font-family="'MyriadPro-Regular'" font-size="13.2681" letter-spacing="1">	</tspan><tspan x="907.982" y="0" font-family="'MyriadPro-Regular'" font-size="13.2681" letter-spacing="26">	</tspan><tspan x="937.272" y="0" font-family="'MyriadPro-Regular'" font-size="13.2681">1985</tspan><tspan x="961.843" y="0" font-family="'MyriadPro-Regular'" font-size="13.2681" letter-spacing="1">	</tspan><tspan x="966.562" y="0" font-family="'MyriadPro-Regular'" font-size="13.2681" letter-spacing="26">	</tspan><tspan x="995.852" y="0" font-family="'MyriadPro-Regular'" font-size="13.2681">1990</tspan><tspan x="1020.423" y="0" font-family="'MyriadPro-Regular'" font-size="13.2681" letter-spacing="1">	</tspan><tspan x="1025.142" y="0" font-family="'MyriadPro-Regular'" font-size="13.2681" letter-spacing="26">	</tspan><tspan x="1054.432" y="0" font-family="'MyriadPro-Regular'" font-size="13.2681">1995</tspan><tspan x="1079.005" y="0" font-family="'MyriadPro-Regular'" font-size="13.2681" letter-spacing="1">	</tspan><tspan x="1083.723" y="0" font-family="'MyriadPro-Regular'" font-size="13.2681" letter-spacing="26">	</tspan><tspan x="1113.013" y="0" font-family="'MyriadPro-Regular'" font-size="13.2681">2000</tspan><tspan x="1137.586" y="0" font-family="'MyriadPro-Regular'" font-size="13.2681" letter-spacing="1">	</tspan><tspan x="1142.305" y="0" font-family="'MyriadPro-Regular'" font-size="13.2681" letter-spacing="26">	</tspan><tspan x="1171.595" y="0" font-family="'MyriadPro-Regular'" font-size="13.2681">2005</tspan><tspan x="1196.168" y="0" font-family="'MyriadPro-Regular'" font-size="13.2681" letter-spacing="1">	</tspan><tspan x="1200.887" y="0" font-family="'MyriadPro-Regular'" font-size="13.2681" letter-spacing="26">	</tspan><tspan x="1230.177" y="0" font-family="'MyriadPro-Regular'" font-size="13.2681">2010</tspan></text>
</g>
<g id="Layer_5">
	<g>
		<g>
			<line fill="none" stroke="#E94037" stroke-width="8" stroke-miterlimit="10" x1="513.446" y1="308.914" x2="514.86" y2="307.5"/>
			
				<line fill="none" stroke="#E94037" stroke-width="8" stroke-miterlimit="10" stroke-dasharray="4.1713,4.1713" x1="517.81" y1="304.55" x2="534.032" y2="288.328"/>
			
				<line fill="none" stroke="#E94037" stroke-width="8" stroke-miterlimit="10" x1="535.507" y1="286.853" x2="536.921" y2="285.439"/>
		</g>
	</g>
	<g>
		<g>
			
				<line fill="none" stroke="#E94037" stroke-width="8" stroke-miterlimit="10" x1="534.632" y1="218.751" x2="534.632" y2="216.751"/>
			
				<line fill="none" stroke="#E94037" stroke-width="8" stroke-miterlimit="10" stroke-dasharray="3.7729,3.7729" x1="534.632" y1="212.979" x2="534.633" y2="177.136"/>
			
				<line fill="none" stroke="#E94037" stroke-width="8" stroke-miterlimit="10" x1="534.633" y1="175.249" x2="534.633" y2="173.249"/>
		</g>
	</g>
	<g>
		<g>
			<line fill="none" stroke="#E94037" stroke-width="8" stroke-miterlimit="10" x1="450.52" y1="310.5" x2="451.934" y2="309.086"/>
			
				<line fill="none" stroke="#E94037" stroke-width="8" stroke-miterlimit="10" stroke-dasharray="3.9639,3.9639" x1="454.737" y1="306.283" x2="531.817" y2="229.203"/>
			
				<line fill="none" stroke="#E94037" stroke-width="8" stroke-miterlimit="10" x1="533.219" y1="227.801" x2="534.633" y2="226.387"/>
		</g>
	</g>
	<g>
		<g>
			
				<line fill="none" stroke="#E94037" stroke-width="8" stroke-miterlimit="10" x1="185.538" y1="310.5" x2="186.952" y2="309.086"/>
			
				<line fill="none" stroke="#E94037" stroke-width="8" stroke-miterlimit="10" stroke-dasharray="3.9639,3.9639" x1="189.755" y1="306.283" x2="266.836" y2="229.203"/>
			
				<line fill="none" stroke="#E94037" stroke-width="8" stroke-miterlimit="10" x1="268.237" y1="227.801" x2="269.651" y2="226.387"/>
		</g>
	</g>
	<g>
		<g>
			
				<line fill="none" stroke="#E94037" stroke-width="8" stroke-miterlimit="10" x1="265.597" y1="218.751" x2="265.597" y2="216.751"/>
			
				<line fill="none" stroke="#E94037" stroke-width="8" stroke-miterlimit="10" stroke-dasharray="3.7729,3.7729" x1="265.597" y1="212.979" x2="265.598" y2="177.136"/>
			
				<line fill="none" stroke="#E94037" stroke-width="8" stroke-miterlimit="10" x1="265.598" y1="175.249" x2="265.598" y2="173.249"/>
		</g>
	</g>
	<rect x="1063.932" y="153.945" fill="#ED1C24" width="9.363" height="29.246"/>
	<linearGradient id="SVGID_3_" gradientUnits="userSpaceOnUse" x1="46.2939" y1="401.8882" x2="108.6685" y2="401.8882">
		<stop  offset="0" style="stop-color:#FFFFFF"/>
		<stop  offset="0.5265" style="stop-color:#009444"/>
	</linearGradient>
	<rect x="46.294" y="397.207" fill="url(#SVGID_3_)" width="62.375" height="9.363"/>
	<linearGradient id="SVGID_4_" gradientUnits="userSpaceOnUse" x1="46.2939" y1="438.6162" x2="108.6685" y2="438.6162">
		<stop  offset="0" style="stop-color:#FFFFFF"/>
		<stop  offset="0.5265" style="stop-color:#009444"/>
	</linearGradient>
	<rect x="46.294" y="433.935" fill="url(#SVGID_4_)" width="62.375" height="9.362"/>
	<linearGradient id="SVGID_5_" gradientUnits="userSpaceOnUse" x1="46.2939" y1="527.2642" x2="108.6685" y2="527.2642">
		<stop  offset="0" style="stop-color:#FFFFFF"/>
		<stop  offset="0.5265" style="stop-color:#009444"/>
	</linearGradient>
	<rect x="46.294" y="522.583" fill="url(#SVGID_5_)" width="62.375" height="9.363"/>
	<linearGradient id="SVGID_6_" gradientUnits="userSpaceOnUse" x1="46.2939" y1="669.6733" x2="108.6685" y2="669.6733">
		<stop  offset="0" style="stop-color:#FFFFFF"/>
		<stop  offset="0.5265" style="stop-color:#1C75BC"/>
	</linearGradient>
	<rect x="46.294" y="664.992" fill="url(#SVGID_6_)" width="62.375" height="9.363"/>
	<rect x="108.668" y="314.888" fill="#BE1E2D" width="9.362" height="258.753"/>
	<rect x="93.702" y="383.266" fill="#FFFFFF" width="39.294" height="74.643"/>
	<rect x="460.46" y="473.557" fill="#008546" width="157.54" height="9.363"/>
	<linearGradient id="SVGID_7_" gradientUnits="userSpaceOnUse" x1="460.46" y1="572.3813" x2="460.46" y2="415.2051">
		<stop  offset="0.2405" style="stop-color:#2B3990"/>
		<stop  offset="0.9388" style="stop-color:#009444"/>
	</linearGradient>
	<rect x="455.779" y="415.205" fill="url(#SVGID_7_)" width="9.362" height="157.176"/>
	<rect x="236.142" y="398.896" fill="#009444" width="9.362" height="39.719"/>
	<rect x="766.318" y="386.207" fill="#FBB040" width="582.523" height="9.363"/>
	<rect x="97.09" y="397.207" fill="#009444" width="148.558" height="9.363"/>
	<g>
		<path fill="#009444" d="M134.647,407.152c0,5.168-4.19,9.359-9.36,9.359h-31.28c-5.169,0-9.359-4.19-9.359-9.359v-10.528
			c0-5.168,4.19-9.359,9.359-9.359h31.28c5.17,0,9.36,4.19,9.36,9.359V407.152z"/>
		<text transform="matrix(1 0 0 1 101.0898 406.6382)" fill="#FFFFFF" font-family="'MyriadPro-Bold'" font-size="13">SP</text>
	</g>
	<rect x="97.09" y="433.935" fill="#009444" width="148.558" height="9.362"/>
	<g>
		<path fill="#009444" d="M134.647,443.879c0,5.17-4.19,9.359-9.36,9.359h-31.28c-5.169,0-9.359-4.189-9.359-9.359v-10.527
			c0-5.168,4.19-9.358,9.359-9.358h31.28c5.17,0,9.36,4.19,9.36,9.358V443.879z"/>
		<text transform="matrix(1 0 0 1 95.9287 443.3662)" fill="#FFFFFF" font-family="'MyriadPro-Bold'" font-size="13">NSP</text>
	</g>
	<linearGradient id="SVGID_8_" gradientUnits="userSpaceOnUse" x1="634.5562" y1="366.2661" x2="771" y2="366.2661">
		<stop  offset="0.3921" style="stop-color:#8DC63F"/>
		<stop  offset="1" style="stop-color:#FBB040"/>
	</linearGradient>
	<rect x="634.556" y="361.584" fill="url(#SVGID_8_)" width="136.444" height="9.363"/>
	<g>
		<path fill="#8DC63F" d="M672.113,371.53c0,5.168-4.19,9.358-9.36,9.358h-31.28c-5.169,0-9.359-4.19-9.359-9.358v-10.528
			c0-5.168,4.19-9.359,9.359-9.359h31.28c5.17,0,9.36,4.19,9.36,9.359V371.53z"/>
		<text transform="matrix(1 0 0 1 637.9058 371.0156)" fill="#FFFFFF" font-family="'MyriadPro-Bold'" font-size="13">VL</text>
	</g>
	<linearGradient id="SVGID_9_" gradientUnits="userSpaceOnUse" x1="241.9751" y1="417.7368" x2="771" y2="417.7368">
		<stop  offset="0.3628" style="stop-color:#009444"/>
		<stop  offset="1" style="stop-color:#FBB040"/>
	</linearGradient>
	<rect x="241.975" y="413.055" fill="url(#SVGID_9_)" width="529.025" height="9.363"/>
	<g>
		<path fill="#009444" d="M306.333,423c0,5.168-4.19,9.359-9.36,9.359h-31.28c-5.169,0-9.359-4.191-9.359-9.359v-10.528
			c0-5.168,4.19-9.359,9.359-9.359h31.28c5.17,0,9.36,4.19,9.36,9.359V423z"/>
		<text transform="matrix(1 0 0 1 272.8135 422.4863)" fill="#FFFFFF" font-family="'MyriadPro-Bold'" font-size="13">KP</text>
	</g>
	<rect x="761.638" y="361.584" fill="#FBB040" width="9.362" height="60.164"/>
	<g>
		<path fill="#FBB040" d="M832,396.152c0,5.168-4.19,9.359-9.36,9.359h-31.28c-5.169,0-9.359-4.19-9.359-9.359v-10.528
			c0-5.168,4.19-9.359,9.359-9.359h31.28c5.17,0,9.36,4.19,9.36,9.359V396.152z"/>
		<text transform="matrix(1 0 0 1 795.9648 395.6382)" fill="#FFFFFF" font-family="'MyriadPro-Bold'" font-size="13">LKP</text>
	</g>
	<g>
		<path fill="#008D48" d="M483.148,483.502c0,5.168-4.191,9.359-9.361,9.359h-31.279c-5.17,0-9.359-4.191-9.359-9.359v-10.527
			c0-5.168,4.189-9.359,9.359-9.359h31.279c5.17,0,9.361,4.191,9.361,9.359V483.502z"/>
		<text transform="matrix(1 0 0 1 444.5918 482.9888)" fill="#FFFFFF" font-family="'MyriadPro-Bold'" font-size="13">PMP</text>
	</g>
	<linearGradient id="SVGID_10_" gradientUnits="userSpaceOnUse" x1="617.9995" y1="478.2388" x2="675.4702" y2="478.2388">
		<stop  offset="0" style="stop-color:#008445"/>
		<stop  offset="1" style="stop-color:#FFFFFF"/>
	</linearGradient>
	<rect x="618" y="473.557" fill="url(#SVGID_10_)" width="57.471" height="9.363"/>
	<linearGradient id="SVGID_11_" gradientUnits="userSpaceOnUse" x1="875" y1="273.1255" x2="1006.4365" y2="273.1255">
		<stop  offset="0.5131" style="stop-color:#EC2127"/>
		<stop  offset="1" style="stop-color:#FFFFFF"/>
	</linearGradient>
	<rect x="875" y="268.444" fill="url(#SVGID_11_)" width="131.437" height="9.363"/>
	<rect x="365.746" y="567.959" fill="#2B3990" width="411.568" height="9.362"/>
	<g>
		<path fill="#2B3990" d="M390.746,577.645c0,5.168-4.19,9.358-9.36,9.358h-31.28c-5.169,0-9.359-4.19-9.359-9.358v-10.528
			c0-5.169,4.19-9.358,9.359-9.358h31.28c5.17,0,9.36,4.189,9.36,9.358V577.645z"/>
		<text transform="matrix(1 0 0 1 354.7363 577.1304)" fill="#FFFFFF" font-family="'MyriadPro-Bold'" font-size="13">SPP</text>
	</g>
	<rect x="441.706" y="519.017" fill="#FFFFFF" width="39.294" height="18"/>
	<rect x="97.204" y="523.335" fill="#009444" width="664.434" height="9.363"/>
	<rect x="1005.074" y="448.558" fill="#8DC63F" width="343.768" height="9.362"/>
	<rect x="1083.073" y="268.444" fill="#ED1C24" width="268.777" height="9.363"/>
	<rect x="559.596" y="223.433" fill="#EF4136" width="513.699" height="9.363"/>
	<g>
		<path fill="#8DC63F" d="M1054.574,458.503c0,5.169-4.19,9.358-9.36,9.358h-31.28c-5.169,0-9.359-4.189-9.359-9.358v-10.528
			c0-5.168,4.19-9.358,9.359-9.358h31.28c5.17,0,9.36,4.19,9.36,9.358V458.503z"/>
		<text transform="matrix(1 0 0 1 1014.0176 457.9893)" fill="#FFFFFF" font-family="'MyriadPro-Bold'" font-size="13">VIHR</text>
	</g>
	<rect x="1038.748" y="119.345" fill="#ED1C24" width="307.098" height="9.363"/>
	<linearGradient id="SVGID_12_" gradientUnits="userSpaceOnUse" x1="764.4766" y1="567.7007" x2="764.4766" y2="501.6519">
		<stop  offset="0.2975" style="stop-color:#2B3990"/>
		<stop  offset="0.8107" style="stop-color:#009444"/>
	</linearGradient>
	<rect x="759.795" y="501.652" fill="url(#SVGID_12_)" width="9.362" height="66.049"/>
	<rect x="759.773" y="496.972" fill="#009444" width="589.068" height="9.362"/>
	<g>
		<path fill="#EF4136" d="M559.632,233.378c0,5.168-4.19,9.359-9.36,9.359h-31.28c-5.169,0-9.359-4.19-9.359-9.359V222.85
			c0-5.168,4.19-9.359,9.359-9.359h31.28c5.17,0,9.36,4.19,9.36,9.359V233.378z"/>
		<text transform="matrix(1 0 0 1 519.0757 232.8638)" fill="#FFFFFF" font-family="'MyriadPro-Bold'" font-size="13">SKDL</text>
	</g>
	<rect x="282.326" y="163.886" fill="#ED1C24" width="786.288" height="9.363"/>
	<g>
		<path fill="#ED1C24" d="M282.326,173.832c0,5.168-4.19,9.359-9.36,9.359h-31.28c-5.169,0-9.359-4.19-9.359-9.359v-10.528
			c0-5.168,4.19-9.359,9.359-9.359h31.28c5.17,0,9.36,4.19,9.36,9.359V173.832z"/>
		<text transform="matrix(1 0 0 1 244.7695 173.3174)" fill="#FFFFFF" font-family="'MyriadPro-Bold'" font-size="13">SKP</text>
	</g>
	<linearGradient id="SVGID_13_" gradientUnits="userSpaceOnUse" x1="108.6685" y1="573.6406" x2="249.3794" y2="573.6406">
		<stop  offset="0" style="stop-color:#BE1E2D"/>
		<stop  offset="0.7456" style="stop-color:#27AAE1"/>
	</linearGradient>
	<rect x="108.668" y="568.959" fill="url(#SVGID_13_)" width="140.711" height="9.362"/>
	<g>
		<path fill="#27AAE1" d="M284.379,578.905c0,5.169-4.19,9.358-9.36,9.358h-31.28c-5.169,0-9.359-4.189-9.359-9.358v-10.528
			c0-5.168,4.19-9.358,9.359-9.358h31.28c5.17,0,9.36,4.19,9.36,9.358V578.905z"/>
		<text transform="matrix(1 0 0 1 241.8223 578.3906)" fill="#FFFFFF" font-family="'MyriadPro-Bold'" font-size="13">SKrTL</text>
	</g>
	<rect x="725.959" y="270.094" fill="#BE1E2D" width="9.361" height="35.308"/>
	<linearGradient id="SVGID_14_" gradientUnits="userSpaceOnUse" x1="725.959" y1="273.1255" x2="851.6699" y2="273.1255">
		<stop  offset="0" style="stop-color:#BE1E2D"/>
		<stop  offset="0.2697" style="stop-color:#CE1D2A"/>
		<stop  offset="0.6897" style="stop-color:#E21D26"/>
		<stop  offset="1" style="stop-color:#ED1C24"/>
	</linearGradient>
	<rect x="725.959" y="268.444" fill="url(#SVGID_14_)" width="125.711" height="9.362"/>
	<g>
		<path fill="#ED1C24" d="M755.64,278.39c0,5.169-4.191,9.358-9.361,9.358h-31.279c-5.17,0-9.359-4.189-9.359-9.358v-10.528
			c0-5.168,4.189-9.358,9.359-9.358h31.279c5.17,0,9.361,4.19,9.361,9.358V278.39z"/>
		<text transform="matrix(1 0 0 1 716.082 277.8755)" fill="#FFFFFF" font-family="'MyriadPro-Bold'" font-size="13">TPSL</text>
	</g>
	<rect x="97.204" y="305.525" fill="#BE1E2D" width="1251.638" height="9.363"/>
	<linearGradient id="SVGID_15_" gradientUnits="userSpaceOnUse" x1="46.2939" y1="310.2065" x2="108.6685" y2="310.2065">
		<stop  offset="0" style="stop-color:#FFFFFF"/>
		<stop  offset="0.5265" style="stop-color:#BE1E2D"/>
	</linearGradient>
	<rect x="46.294" y="305.525" fill="url(#SVGID_15_)" width="62.375" height="9.363"/>
	<g>
		<path fill="#BE1E2D" d="M134.647,315.47c0,5.169-4.19,9.359-9.36,9.359h-31.28c-5.169,0-9.359-4.19-9.359-9.359v-10.527
			c0-5.168,4.19-9.359,9.359-9.359h31.28c5.17,0,9.36,4.19,9.36,9.359V315.47z"/>
		<text transform="matrix(1 0 0 1 97.0898 314.9561)" fill="#FFFFFF" font-family="'MyriadPro-Bold'" font-size="13">SDP</text>
	</g>
	<rect x="93.702" y="507.971" fill="#FFFFFF" width="39.294" height="38.586"/>
	<g>
		<rect x="257.379" y="673.326" fill="#1C75BC" width="9.362" height="35.309"/>
		<rect x="257.379" y="701.203" fill="#1C75BC" width="352.216" height="9.363"/>
		<g>
			<path fill="#1C75BC" d="M287.061,711.148c0,5.169-4.19,9.359-9.36,9.359h-31.28c-5.169,0-9.359-4.19-9.359-9.359v-10.527
				c0-5.168,4.19-9.359,9.359-9.359h31.28c5.17,0,9.36,4.191,9.36,9.359V711.148z"/>
			<text transform="matrix(1 0 0 1 249.5039 710.6343)" fill="#FFFFFF" font-family="'MyriadPro-Bold'" font-size="13">RVP</text>
		</g>
		<rect x="97.204" y="664.992" fill="#1C75BC" width="1251.638" height="9.363"/>
		<g>
			<path fill="#1C75BC" d="M134.647,674.937c0,5.168-4.19,9.359-9.36,9.359h-31.28c-5.169,0-9.359-4.191-9.359-9.359V664.41
				c0-5.169,4.19-9.359,9.359-9.359h31.28c5.17,0,9.36,4.19,9.36,9.359V674.937z"/>
			<text transform="matrix(1 0 0 1 97.0898 674.4229)" fill="#FFFFFF" font-family="'MyriadPro-Bold'" font-size="13">RKP</text>
		</g>
		<rect x="604.914" y="691.261" fill="#1C75BC" width="9.363" height="29.246"/>
	</g>
	<g>
		<path fill="#009444" d="M134.647,533.281c0,5.168-4.19,9.359-9.36,9.359h-31.28c-5.169,0-9.359-4.191-9.359-9.359v-10.527
			c0-5.169,4.19-9.359,9.359-9.359h31.28c5.17,0,9.36,4.19,9.36,9.359V533.281z"/>
		<text transform="matrix(1 0 0 1 100.0898 532.7666)" fill="#FFFFFF" font-family="'MyriadPro-Bold'" font-size="13">ML</text>
	</g>
	<g>
		<rect x="258.205" y="738.4" fill="#008BCD" width="1090.637" height="9.363"/>
		<g>
			<path fill="#008BCD" d="M295.648,748.345c0,5.169-4.19,9.359-9.36,9.359h-31.28c-5.169,0-9.359-4.19-9.359-9.359v-10.527
				c0-5.168,4.19-9.359,9.359-9.359h31.28c5.17,0,9.36,4.191,9.36,9.359V748.345z"/>
			<text transform="matrix(1 0 0 1 258.0918 747.8315)" fill="#FFFFFF" font-family="'MyriadPro-Bold'" font-size="13">KOK</text>
		</g>
	</g>
	<g>
		<path fill="#009444" d="M827.314,502.236c0,5.168-4.19,9.358-9.36,9.358h-31.28c-5.169,0-9.359-4.19-9.359-9.358v-10.528
			c0-5.169,4.19-9.358,9.359-9.358h31.28c5.17,0,9.36,4.189,9.36,9.358V502.236z"/>
		<text transform="matrix(1 0 0 1 786.7578 501.7212)" fill="#FFFFFF" font-family="'MyriadPro-Bold'" font-size="13">KESK</text>
	</g>
	<g>
		<rect x="759.773" y="567.701" fill="#2B3990" width="589.068" height="9.363"/>
		<g>
			<path fill="#2B3990" d="M1193.037,577.646c0,5.168-4.19,9.358-9.36,9.358h-31.28c-5.169,0-9.359-4.19-9.359-9.358v-10.528
				c0-5.169,4.19-9.358,9.359-9.358h31.28c5.17,0,9.36,4.189,9.36,9.358V577.646z"/>
			<text transform="matrix(1 0 0 1 1159.4805 577.1313)" fill="#FFFFFF" font-family="'MyriadPro-Bold'" font-size="13">PS</text>
		</g>
		<g>
			<path fill="#2B3990" d="M827.314,578.905c0,5.168-4.19,9.358-9.36,9.358h-31.28c-5.169,0-9.359-4.19-9.359-9.358v-10.528
				c0-5.169,4.19-9.358,9.359-9.358h31.28c5.17,0,9.36,4.189,9.36,9.358V578.905z"/>
			<text transform="matrix(1 0 0 1 789.7578 578.3901)" fill="#FFFFFF" font-family="'MyriadPro-Bold'" font-size="13">SMP</text>
		</g>
	</g>
	<g>
		<linearGradient id="SVGID_16_" gradientUnits="userSpaceOnUse" x1="46.2939" y1="620.3623" x2="229.1519" y2="620.3623">
			<stop  offset="0" style="stop-color:#FFFFFF"/>
			<stop  offset="0.2603" style="stop-color:#27AAE1"/>
		</linearGradient>
		<rect x="46.294" y="615.681" fill="url(#SVGID_16_)" width="182.858" height="9.362"/>
		<g>
			<path fill="#27AAE1" d="M264.151,625.626c0,5.168-4.191,9.358-9.361,9.358h-31.279c-5.17,0-9.359-4.19-9.359-9.358v-10.528
				c0-5.169,4.189-9.358,9.359-9.358h31.279c5.17,0,9.361,4.189,9.361,9.358V625.626z"/>
			<text transform="matrix(1 0 0 1 227.5947 625.1118)" fill="#FFFFFF" font-family="'MyriadPro-Bold'" font-size="13">KTL</text>
		</g>
		<rect x="758.642" y="615.681" fill="#27AAE1" width="587.204" height="9.362"/>
		<g>
			<path fill="#27AAE1" d="M796.085,625.626c0,5.168-4.19,9.358-9.36,9.358h-31.28c-5.169,0-9.359-4.19-9.359-9.358v-10.528
				c0-5.169,4.19-9.358,9.359-9.358h31.28c5.17,0,9.36,4.189,9.36,9.358V625.626z"/>
			<text transform="matrix(1 0 0 1 762.5283 625.1118)" fill="#FFFFFF" font-family="'MyriadPro-Bold'" font-size="13">KD</text>
		</g>
	</g>
	<rect x="454.149" y="786.757" fill="#008BCD" width="117.12" height="9.363"/>
	<g>
		<path fill="#008BCD" d="M491.706,796.702c0,5.168-4.19,9.359-9.36,9.359h-31.28c-5.169,0-9.359-4.191-9.359-9.359v-10.527
			c0-5.168,4.19-9.359,9.359-9.359h31.28c5.17,0,9.36,4.191,9.36,9.359V796.702z"/>
		<text transform="matrix(1 0 0 1 458.1489 796.1875)" fill="#FFFFFF" font-family="'MyriadPro-Bold'" font-size="13">IKL</text>
	</g>
	<rect x="1231.723" y="786.757" fill="#008BCD" width="117.119" height="9.363"/>
	<g>
		<path fill="#008BCD" d="M1269.279,796.702c0,5.168-4.191,9.359-9.361,9.359h-31.279c-5.17,0-9.359-4.191-9.359-9.359v-10.527
			c0-5.168,4.189-9.359,9.359-9.359h31.279c5.17,0,9.361,4.191,9.361,9.359V796.702z"/>
		<text transform="matrix(1 0 0 1 1235.7227 796.1875)" fill="#FFFFFF" font-family="'MyriadPro-Bold'" font-size="13">IKL</text>
	</g>
	<g>
		<g>
			
				<line fill="none" stroke="#008BCD" stroke-width="4" stroke-linecap="round" stroke-miterlimit="10" x1="1219.279" y1="791.438" x2="1213.279" y2="791.438"/>
			
				<line fill="none" stroke="#008BCD" stroke-width="4" stroke-linecap="round" stroke-miterlimit="10" stroke-dasharray="11.9253,11.9253" x1="1201.354" y1="791.438" x2="587.2" y2="791.438"/>
			
				<line fill="none" stroke="#008BCD" stroke-width="4" stroke-linecap="round" stroke-miterlimit="10" x1="581.238" y1="791.438" x2="575.238" y2="791.438"/>
		</g>
	</g>
	<g>
		<text transform="matrix(1 0 0 1 87.5635 68.605)" fill="#BCBEC0" font-family="'MyriadPro-Semibold'" font-size="16">1905</text>
		<text transform="matrix(1 0 0 1 1306.0029 68.605)" fill="#BCBEC0" font-family="'MyriadPro-Semibold'" font-size="16">2015</text>
		<text transform="matrix(1 0 0 1 198.3306 68.605)" fill="#BCBEC0" font-family="'MyriadPro-Semibold'" font-size="16">1915</text>
		<text transform="matrix(1 0 0 1 309.0981 68.605)" fill="#BCBEC0" font-family="'MyriadPro-Semibold'" font-size="16">1925</text>
		<text transform="matrix(1 0 0 1 419.8652 68.605)" fill="#BCBEC0" font-family="'MyriadPro-Semibold'" font-size="16">1935</text>
		<text transform="matrix(1 0 0 1 530.6323 68.605)" fill="#BCBEC0" font-family="'MyriadPro-Semibold'" font-size="16">1945</text>
		<text transform="matrix(1 0 0 1 641.3994 68.605)" fill="#BCBEC0" font-family="'MyriadPro-Semibold'" font-size="16">1955</text>
		<text transform="matrix(1 0 0 1 752.168 68.605)" fill="#BCBEC0" font-family="'MyriadPro-Semibold'" font-size="16">1965</text>
		<text transform="matrix(1 0 0 1 862.9336 68.605)" fill="#BCBEC0" font-family="'MyriadPro-Semibold'" font-size="16">1975</text>
		<text transform="matrix(1 0 0 1 1195.2363 68.605)" fill="#BCBEC0" font-family="'MyriadPro-Semibold'" font-size="16">2005</text>
		<text transform="matrix(1 0 0 1 973.7012 68.605)" fill="#BCBEC0" font-family="'MyriadPro-Semibold'" font-size="16">1985</text>
		<text transform="matrix(1 0 0 1 1084.4688 68.605)" fill="#BCBEC0" font-family="'MyriadPro-Semibold'" font-size="16">1995</text>
	</g>
	<g>
		<path fill="#ED1C24" d="M1066.105,129.963c0,5.168-4.191,9.359-9.361,9.359h-31.279c-5.17,0-9.359-4.19-9.359-9.359v-10.528
			c0-5.168,4.189-9.359,9.359-9.359h31.279c5.17,0,9.361,4.19,9.361,9.359V129.963z"/>
		<text transform="matrix(1 0 0 1 1028.5488 129.4487)" fill="#FFFFFF" font-family="'MyriadPro-Bold'" font-size="13">KTP</text>
	</g>
	<g>
		<g>
			
				<line fill="none" stroke="#E94037" stroke-width="8" stroke-miterlimit="10" x1="980.441" y1="168.052" x2="981.855" y2="166.638"/>
			
				<line fill="none" stroke="#E94037" stroke-width="8" stroke-miterlimit="10" stroke-dasharray="3.9209,3.9209" x1="984.628" y1="163.866" x2="1016.512" y2="131.981"/>
			
				<line fill="none" stroke="#E94037" stroke-width="8" stroke-miterlimit="10" x1="1017.898" y1="130.595" x2="1019.312" y2="129.181"/>
		</g>
	</g>
	<rect x="1273.299" y="168.636" fill="#ED1C24" width="73.409" height="9.362"/>
	<g>
		<path fill="#ED1C24" d="M1275.434,178.513c0,5.169-4.19,9.358-9.36,9.358h-31.28c-5.169,0-9.359-4.189-9.359-9.358v-10.528
			c0-5.168,4.19-9.358,9.359-9.358h31.28c5.17,0,9.36,4.19,9.36,9.358V178.513z"/>
		<text transform="matrix(1 0 0 1 1237.877 177.999)" fill="#FFFFFF" font-family="'MyriadPro-Bold'" font-size="13">STP</text>
	</g>
	<rect x="1063.932" y="213.491" fill="#ED1C24" width="9.363" height="29.246"/>
	<g>
		<g>
			
				<line fill="none" stroke="#E94037" stroke-width="8" stroke-miterlimit="10" x1="1068.612" y1="263.479" x2="1068.612" y2="261.479"/>
			
				<line fill="none" stroke="#E94037" stroke-width="8" stroke-miterlimit="10" stroke-dasharray="3.8341,3.8341" x1="1068.612" y1="257.645" x2="1068.613" y2="244.226"/>
			
				<line fill="none" stroke="#E94037" stroke-width="8" stroke-miterlimit="10" x1="1068.613" y1="242.309" x2="1068.613" y2="240.309"/>
		</g>
	</g>
	<g>
		<path fill="#ED1C24" d="M1096.622,278.389c0,5.168-4.19,9.359-9.36,9.359h-31.28c-5.169,0-9.359-4.19-9.359-9.359v-10.528
			c0-5.168,4.19-9.359,9.359-9.359h31.28c5.17,0,9.36,4.19,9.36,9.359V278.389z"/>
		<text transform="matrix(1 0 0 1 1059.0654 277.875)" fill="#FFFFFF" font-family="'MyriadPro-Bold'" font-size="13">VAS</text>
	</g>
	<g>
		<g>
			
				<line fill="none" stroke="#E94037" stroke-width="8" stroke-miterlimit="10" x1="1054.574" y1="263.479" x2="1054.574" y2="261.479"/>
			
				<line fill="none" stroke="#E94037" stroke-width="8" stroke-miterlimit="10" stroke-dasharray="4.1062,4.1062" x1="1054.574" y1="257.373" x2="1054.575" y2="177.302"/>
			
				<line fill="none" stroke="#E94037" stroke-width="8" stroke-miterlimit="10" x1="1054.575" y1="175.249" x2="1054.575" y2="173.249"/>
		</g>
	</g>
	<rect x="290.598" y="218.751" fill="#ED1C24" width="18.782" height="9.362"/>
	<rect x="300.651" y="208.81" fill="#ED1C24" width="9.363" height="29.246"/>
	<rect x="366.254" y="218.751" fill="#ED1C24" width="18.782" height="9.362"/>
	<rect x="377.308" y="208.81" fill="#ED1C24" width="9.363" height="29.246"/>
	<g>
		<g>
			
				<line fill="none" stroke="#E94037" stroke-width="8" stroke-miterlimit="10" x1="336.85" y1="223.433" x2="334.85" y2="223.433"/>
			
				<line fill="none" stroke="#E94037" stroke-width="8" stroke-miterlimit="10" stroke-dasharray="3.7729,3.7729" x1="331.077" y1="223.433" x2="295.233" y2="223.432"/>
			
				<line fill="none" stroke="#E94037" stroke-width="8" stroke-miterlimit="10" x1="293.347" y1="223.432" x2="291.347" y2="223.432"/>
		</g>
	</g>
	<g>
		<path fill="#ED1C24" d="M368.254,228.697c0,5.169-4.19,9.358-9.36,9.358h-31.28c-5.169,0-9.359-4.189-9.359-9.358v-10.528
			c0-5.168,4.19-9.358,9.359-9.358h31.28c5.17,0,9.36,4.19,9.36,9.358V228.697z"/>
		<text transform="matrix(1 0 0 1 327.6973 228.1826)" fill="#FFFFFF" font-family="'MyriadPro-Bold'" font-size="13">STPV</text>
	</g>
	<g>
		<path fill="#ED1C24" d="M290.598,228.697c0,5.169-4.19,9.358-9.36,9.358h-31.28c-5.169,0-9.359-4.189-9.359-9.358v-10.528
			c0-5.168,4.19-9.358,9.359-9.358h31.28c5.17,0,9.36,4.19,9.36,9.358V228.697z"/>
		<text transform="matrix(1 0 0 1 251.041 228.1826)" fill="#FFFFFF" font-family="'MyriadPro-Bold'" font-size="13">SSTP</text>
	</g>
	<rect x="575.132" y="268.444" fill="#EF4136" width="119.868" height="9.363"/>
	<rect x="690.318" y="258.503" fill="#ED1C24" width="9.363" height="29.246"/>
	
		<rect x="524.967" y="249.105" transform="matrix(0.4768 0.879 -0.879 0.4768 508.3326 -346.4456)" fill="#ED1C24" width="40.441" height="9.363"/>
	<g>
		<path fill="#ED1C24" d="M877.314,278.389c0,5.169-4.19,9.358-9.36,9.358h-31.28c-5.169,0-9.359-4.189-9.359-9.358v-10.528
			c0-5.168,4.19-9.358,9.359-9.358h31.28c5.17,0,9.36,4.19,9.36,9.358V278.389z"/>
		<text transform="matrix(1 0 0 1 839.7578 277.875)" fill="#FFFFFF" font-family="'MyriadPro-Bold'" font-size="13">STP</text>
	</g>
	<linearGradient id="SVGID_17_" gradientUnits="userSpaceOnUse" x1="1067.8867" y1="196.1372" x2="1125.3574" y2="196.1372">
		<stop  offset="0" style="stop-color:#EC2127"/>
		<stop  offset="1" style="stop-color:#FFFFFF"/>
	</linearGradient>
	<rect x="1067.887" y="191.456" fill="url(#SVGID_17_)" width="57.471" height="9.363"/>
	<rect x="1042.309" y="191.456" fill="#ED1C24" width="27.789" height="9.362"/>
	<g>
		<path fill="#ED1C24" d="M1044.443,201.333c0,5.169-4.19,9.358-9.36,9.358h-31.28c-5.169,0-9.359-4.189-9.359-9.358v-10.528
			c0-5.168,4.19-9.358,9.359-9.358h31.28c5.17,0,9.36,4.19,9.36,9.358V201.333z"/>
		<text transform="matrix(1 0 0 1 1002.8867 199.8188)" fill="#FFFFFF" font-family="'MyriadPro-Bold'" font-size="13">Deva</text>
	</g>
	<g>
		<g>
			
				<line fill="none" stroke="#E94037" stroke-width="8" stroke-miterlimit="10" x1="979.941" y1="227.683" x2="981.355" y2="226.269"/>
			
				<line fill="none" stroke="#E94037" stroke-width="8" stroke-miterlimit="10" stroke-dasharray="4.4487,4.4487" x1="984.502" y1="223.123" x2="995.512" y2="212.113"/>
			
				<line fill="none" stroke="#E94037" stroke-width="8" stroke-miterlimit="10" x1="997.085" y1="210.54" x2="998.499" y2="209.126"/>
		</g>
	</g>
	<g>
		<g>
			
				<line fill="none" stroke="#E94037" stroke-width="8" stroke-miterlimit="10" x1="981.165" y1="169.167" x2="982.611" y2="170.549"/>
			
				<line fill="none" stroke="#E94037" stroke-width="8" stroke-miterlimit="10" stroke-dasharray="3.8859,3.8859" x1="985.42" y1="173.234" x2="1000.871" y2="188.001"/>
			
				<line fill="none" stroke="#E94037" stroke-width="8" stroke-miterlimit="10" x1="1002.275" y1="189.343" x2="1003.722" y2="190.725"/>
		</g>
	</g>
	<g>
		<path fill="#EF4136" d="M575.168,278.39c0,5.168-4.19,9.359-9.36,9.359h-31.28c-5.169,0-9.359-4.19-9.359-9.359v-10.528
			c0-5.168,4.19-9.359,9.359-9.359h31.28c5.17,0,9.36,4.19,9.36,9.359V278.39z"/>
		<text transform="matrix(1 0 0 1 538.6118 277.8755)" fill="#FFFFFF" font-family="'MyriadPro-Bold'" font-size="13">SYP</text>
	</g>
</g>
</svg>
